<svg width="150" height="71" viewBox="0 0 150 71" fill="none" xmlns="http://www.w3.org/2000/svg">
<path d="M133.286 57.9971C129.471 57.9971 126.107 57.2403 123.193 55.7268C120.279 54.2553 118.007 52.1953 116.379 49.5466C114.793 46.8559 114 43.7869 114 40.3394C114 37.1022 114.793 34.1803 116.379 31.5736C117.964 28.925 120.15 26.8439 122.936 25.3304C125.721 23.7748 128.85 22.9971 132.321 22.9971C135.621 22.9971 138.621 23.7118 141.321 25.1412C144.021 26.5706 146.143 28.5676 147.686 31.1322C149.229 33.6547 150 36.5136 150 39.7088C150 40.5496 149.786 42.0211 149.357 44.1232H124.929C125.4 45.8469 126.364 47.1712 127.821 48.0962C129.321 49.0211 131.143 49.4836 133.286 49.4836C136.5 49.4836 139.179 48.4325 141.321 46.3304L147.429 52.3214C143.914 56.1052 139.2 57.9971 133.286 57.9971ZM132.321 31.1953C128.293 31.5316 125.829 33.3184 124.929 36.5556H139.071C138.086 32.9821 135.836 31.1953 132.321 31.1953Z" fill="white"/>
<path d="M100.988 23.6209V25.8044C103.207 23.9328 106.137 22.9971 109.779 22.9971C112.584 22.9971 114.991 23.8289 117 25.4925L110.407 34.2264C109.36 33.1867 108 32.6668 106.326 32.6668C104.735 32.6668 103.437 33.2075 102.433 34.2888C101.47 35.3286 100.988 36.7634 100.988 38.5934V56.9971H90V23.6209H100.988Z" fill="white"/>
<path d="M83 17V57H72V17H83Z" fill="white"/>
<path d="M44.0526 23.6245V25.8206C46.7053 23.9382 49.5474 22.9971 52.5789 22.9971C55.6947 22.9971 58.4947 23.75 60.979 25.2559C63.5053 26.7199 65.4632 28.7696 66.8526 31.4049C68.2842 33.9984 69 36.9474 69 40.252C69 43.5565 68.2842 46.5474 66.8526 49.2245C65.4632 51.9016 63.5053 53.9931 60.979 55.499C58.4947 57.0467 55.6947 57.8206 52.5789 57.8206C49.1263 57.8206 46.2842 56.8794 44.0526 54.9971V70.9971H33V23.6245H44.0526ZM50.3684 47.7814C52.4316 47.7814 54.1579 47.0703 55.5474 45.648C56.9368 44.2258 57.6316 42.4271 57.6316 40.252C57.6316 38.2023 56.9368 36.4873 55.5474 35.1069C54.1579 33.7265 52.4316 33.0363 50.3684 33.0363C48.3474 33.0363 46.6842 33.7265 45.3789 35.1069C44.0737 36.4873 43.4211 38.2023 43.4211 40.252C43.4211 42.469 44.0526 44.2886 45.3158 45.7108C46.6211 47.0912 48.3053 47.7814 50.3684 47.7814Z" fill="white"/>
<path d="M15.3125 57.9971C12.1458 57.9971 9.22917 57.4399 6.5625 56.3256C3.89583 55.2114 1.70833 53.6256 0 51.5685L6.25 45.1399C8.45833 47.7114 11.375 48.9971 15 48.9971C17.2917 48.9971 18.4375 48.3542 18.4375 47.0685C18.4375 46.2971 18.0208 45.7185 17.1875 45.3328C16.3958 44.9471 15.1458 44.5614 13.4375 44.1756C11.1875 43.4899 9.33333 42.8042 7.875 42.1185C6.45833 41.4328 5.20833 40.3614 4.125 38.9042C3.04167 37.4042 2.5 35.4114 2.5 32.9256C2.5 29.6685 3.6875 27.0328 6.0625 25.0185C8.47917 23.0042 11.7708 21.9971 15.9375 21.9971C18.8125 21.9971 21.4792 22.4899 23.9375 23.4756C26.4375 24.4614 28.4583 25.8971 30 27.7828L23.75 34.5328C22.7083 33.3328 21.5417 32.4542 20.25 31.8971C19 31.2971 17.7708 30.9971 16.5625 30.9971C15.5208 30.9971 14.7292 31.1899 14.1875 31.5756C13.6875 31.9614 13.4375 32.4114 13.4375 32.9256C13.4375 33.6114 13.8125 34.1685 14.5625 34.5971C15.3542 34.9828 16.5417 35.3899 18.125 35.8185C20.3333 36.5042 22.1667 37.1899 23.625 37.8756C25.0833 38.5614 26.3542 39.6542 27.4375 41.1542C28.5208 42.6542 29.0625 44.6256 29.0625 47.0685C29.0625 50.5399 27.8333 53.2185 25.375 55.1042C22.9583 57.0328 19.6042 57.9971 15.3125 57.9971Z" fill="white"/>
<path d="M77.5 15L71.0048 3.75L83.9952 3.75L77.5 15Z" fill="#FF7700"/>
</svg>
