<svg width="81" height="81" viewBox="0 0 81 81" fill="none" xmlns="http://www.w3.org/2000/svg">
<g clip-path="url(#clip0_314_231)">
<rect width="81" height="81" rx="9" fill="black"/>
<path d="M84.444 27.5816V29.2993C86.1893 27.827 88.4944 27.0908 91.3593 27.0908C93.5656 27.0908 95.4591 27.7452 97.0398 29.0539L91.8533 35.9246C91.03 35.1066 89.9598 34.6977 88.6426 34.6977C87.3912 34.6977 86.3704 35.123 85.5801 35.9737C84.8227 36.7916 84.444 37.9204 84.444 39.3599V53.8375H75.7998V27.5816H84.444Z" fill="white"/>
<path d="M70.2935 22.373V53.8397H61.6401V22.373H70.2935Z" fill="white"/>
<path d="M39.6547 27.5844V29.312C41.7414 27.8312 43.9772 27.0908 46.3621 27.0908C48.8131 27.0908 51.0158 27.6831 52.9701 28.8678C54.9574 30.0195 56.4976 31.6319 57.5907 33.705C58.7169 35.7452 59.2799 38.0651 59.2799 40.6647C59.2799 43.2643 58.7169 45.6171 57.5907 47.7231C56.4976 49.8291 54.9574 51.4744 52.9701 52.659C51.0158 53.8765 48.8131 54.4853 46.3621 54.4853C43.646 54.4853 41.4102 53.7449 39.6547 52.2641V64.8508H30.96V27.5844H39.6547ZM44.6231 46.5878C46.2461 46.5878 47.6042 46.0284 48.6972 44.9096C49.7903 43.7908 50.3368 42.3758 50.3368 40.6647C50.3368 39.0523 49.7903 37.7031 48.6972 36.6172C47.6042 35.5313 46.2461 34.9883 44.6231 34.9883C43.0332 34.9883 41.7249 35.5313 40.6981 36.6172C39.6713 37.7031 39.1579 39.0523 39.1579 40.6647C39.1579 42.4087 39.6547 43.8401 40.6484 44.9589C41.6752 46.0448 43.0001 46.5878 44.6231 46.5878Z" fill="white"/>
<path d="M17.0458 54.6247C14.5547 54.6247 12.2603 54.1864 10.1625 53.3098C8.06472 52.4332 6.34389 51.1858 5 49.5675L9.91666 44.5104C11.6539 46.5332 13.9483 47.5447 16.8 47.5447C18.6028 47.5447 19.5042 47.039 19.5042 46.0275C19.5042 45.4207 19.1764 44.9655 18.5208 44.6621C17.898 44.3587 16.9147 44.0552 15.5708 43.7518C13.8008 43.2124 12.3422 42.673 11.195 42.1335C10.0806 41.5941 9.09722 40.7513 8.245 39.605C7.39278 38.425 6.96667 36.8573 6.96667 34.9018C6.96667 32.3395 7.90083 30.2661 9.76916 28.6815C11.6703 27.097 14.2597 26.3047 17.5375 26.3047C19.7992 26.3047 21.8969 26.6924 23.8308 27.4678C25.7975 28.2433 27.3872 29.3727 28.6 30.8561L23.6833 36.1661C22.8639 35.2221 21.9461 34.531 20.93 34.0927C19.9467 33.6207 18.9797 33.3847 18.0292 33.3847C17.2097 33.3847 16.5869 33.5364 16.1608 33.8398C15.7675 34.1433 15.5708 34.4973 15.5708 34.9018C15.5708 35.4413 15.8658 35.8795 16.4558 36.2167C17.0786 36.5201 18.0128 36.8404 19.2583 37.1775C20.9955 37.717 22.4378 38.2564 23.585 38.7958C24.7322 39.3353 25.7319 40.195 26.5842 41.375C27.4364 42.555 27.8625 44.1058 27.8625 46.0275C27.8625 48.7584 26.8955 50.8655 24.9617 52.349C23.0605 53.8661 20.4219 54.6247 17.0458 54.6247Z" fill="white"/>
<path d="M65.9667 20.7998L60.8572 11.9498L71.0763 11.9498L65.9667 20.7998Z" fill="#FF7700"/>
</g>
<defs>
<clipPath id="clip0_314_231">
<rect width="81" height="81" fill="white"/>
</clipPath>
</defs>
</svg>
